<?xml version="1.0" encoding="utf-8"?>
<!-- Generator: Adobe Illustrator 25.2.0, SVG Export Plug-In . SVG Version: 6.00 Build 0)  -->
<svg version="1.1" id="Layer_1" xmlns="http://www.w3.org/2000/svg" xmlns:xlink="http://www.w3.org/1999/xlink" x="0px" y="0px"
	 viewBox="0 -10 108.8 55.8" xml:space="preserve">
<style type="text/css">
	.st0{fill:#A9A9A9;}
	.st1{fill:#666666;}
	.st2{fill:#1F1F1F;}
	.st3{fill:#303030;}
</style>
<g id="Layer_1_1_">
	<g>
		<g>
			<g>
				<g>
					<polygon class="st0" points="89,17.5 89,17.5 89,0.4 80.5,9 					"/>
					<polygon class="st1" points="72,0.4 72,17.5 80.5,9 					"/>
					<polygon class="st0" points="107,0.4 89.9,0.4 98.5,9 					"/>
					<polygon class="st1" points="89.9,0.4 89.9,17.5 98.5,9 					"/>
					<polygon class="st1" points="107,35.5 107,35.5 107,18.4 98.5,26.9 					"/>
					<polygon class="st0" points="98.5,26.9 89.9,35.5 107,35.5 					"/>
					<polygon class="st1" points="89.9,18.4 89.9,35.5 98.5,26.9 					"/>
					<polygon class="st1" points="89,18.4 72,18.4 80.5,26.9 					"/>
					<polygon class="st0" points="72,18.4 72,35.5 80.5,26.9 					"/>
					<polygon class="st2" points="102.6,15.6 91.8,15.6 89.9,17.5 107,17.5 98.5,9 97.2,10.2 					"/>
					<polygon class="st2" points="84.6,15.6 73.8,15.6 72,17.5 89,17.5 80.5,9 79.2,10.2 					"/>
					<polygon class="st2" points="84.6,33.6 73.8,33.6 72,35.5 89,35.5 80.5,26.9 79.2,28.2 					"/>
					<polygon class="st2" points="105.1,33.6 91.8,33.6 89.9,35.5 107,35.5 					"/>
					
						<rect x="97.5" y="36.8" transform="matrix(0.7071 -0.7071 0.7071 0.7071 2.1752 80.6563)" class="st2" width="1.8" height="1.8"/>
					
						<rect x="85.2" y="26" transform="matrix(0.7071 -0.7071 0.7071 0.7071 6.1756 68.7914)" class="st2" width="1.8" height="1.8"/>
					
						<rect x="97.5" y="18.8" transform="matrix(0.7071 -0.7071 0.7071 0.7071 14.8848 75.3914)" class="st2" width="1.8" height="1.8"/>
					<polygon class="st2" points="4.5,27.1 4.5,25.1 2.8,25.1 2.8,27.1 1.9,27.1 1.9,22.3 2.8,22.3 2.8,24.3 4.5,24.3 4.5,22.3 
						5.4,22.3 5.4,27.1 					"/>
					<path class="st2" d="M8.2,23.7l-0.6,1.8h1.2L8.2,23.7z M9.3,27.1L9,26.3H7.3L7,27.1H6l1.8-4.8h0.7l1.8,4.8H9.3z"/>
					<polygon class="st2" points="14.3,27.1 14.3,24.3 13.4,26.2 12.8,26.2 11.8,24.3 11.8,27.1 10.9,27.1 10.9,22.3 11.8,22.3 
						13.1,24.9 14.3,22.3 15.3,22.3 15.3,27.1 					"/>
					<path class="st2" d="M18,23.7l-0.6,1.8h1.2L18,23.7z M19.1,27.1l-0.3-0.9h-1.7l-0.3,0.9h-1l1.8-4.8h0.7l1.8,4.8H19.1z"/>
					<path class="st2" d="M23.1,23.4c-0.2-0.2-0.4-0.3-0.7-0.3h-0.7v3.2h0.7c0.3,0,0.5-0.1,0.7-0.3c0.2-0.2,0.2-0.6,0.2-1.3
						C23.3,24,23.3,23.7,23.1,23.4 M23.7,26.7c-0.3,0.3-0.8,0.5-1.3,0.5h-1.7v-4.8h1.7c0.5,0,1,0.1,1.3,0.5c0.5,0.5,0.5,1.2,0.5,1.9
						S24.3,26.1,23.7,26.7"/>
					<path class="st2" d="M28.9,25.1h-1v1.2h1c0.4,0,0.6-0.3,0.6-0.6C29.5,25.4,29.3,25.1,28.9,25.1 M28.8,23.1h-0.9v1.1h0.9
						c0.4,0,0.6-0.2,0.6-0.6C29.4,23.4,29.2,23.1,28.8,23.1 M29,27.1h-2v-4.8h1.9c0.9,0,1.5,0.5,1.5,1.4c0,0.5-0.4,0.9-0.6,1
						c0.3,0.1,0.7,0.4,0.7,1.1C30.4,26.7,29.8,27.1,29,27.1"/>
					<rect x="31.4" y="22.3" class="st2" width="0.9" height="4.8"/>
					<polygon class="st2" points="36.3,27.1 34.4,24.2 34.4,27.1 33.5,27.1 33.5,22.3 34.3,22.3 36.2,25.3 36.2,22.3 37.2,22.3 
						37.2,27.1 					"/>
					<polygon class="st2" points="42.7,27.1 41.5,24.9 40.8,25.7 40.8,27.1 39.9,27.1 39.9,22.3 40.8,22.3 40.8,24.4 42.5,22.3 
						43.7,22.3 42.1,24.2 43.8,27.1 					"/>
					<polygon class="st2" points="47,27.1 47,25.1 45.4,25.1 45.4,27.1 44.4,27.1 44.4,22.3 45.4,22.3 45.4,24.3 47,24.3 47,22.3 
						47.9,22.3 47.9,27.1 					"/>
					<path class="st2" d="M50.7,23.7l-0.6,1.8h1.2L50.7,23.7z M51.8,27.1l-0.3-0.9h-1.7l-0.3,0.9h-1l1.8-4.8H51l1.8,4.8H51.8z"/>
					<polygon class="st2" points="53.4,27.1 53.4,22.3 54.3,22.3 54.3,26.3 56.5,26.3 56.5,27.1 					"/>
					<rect x="57.3" y="22.3" class="st2" width="0.9" height="4.8"/>
					<polygon class="st2" points="60.3,23.1 60.3,24.3 62.2,24.3 62.2,25.2 60.3,25.2 60.3,27.1 59.4,27.1 59.4,22.3 62.6,22.3 
						62.6,23.1 					"/>
					<path class="st2" d="M65,23.7l-0.6,1.8h1.2L65,23.7z M66.1,27.1l-0.3-0.9h-1.7l-0.3,0.9h-1l1.8-4.8h0.7l1.8,4.8H66.1z"/>
					<path class="st2" d="M31.6,35.5c-1,0-1.8-0.7-1.8-1.7v-3.2h0.9v3.1c0,0.6,0.3,0.9,0.8,0.9s0.8-0.3,0.8-0.9v-3.1h0.9v3.2
						C33.4,34.8,32.6,35.5,31.6,35.5"/>
					<polygon class="st2" points="37.3,35.4 35.4,32.5 35.4,35.4 34.4,35.4 34.4,30.6 35.3,30.6 37.2,33.6 37.2,30.6 38.2,30.6 
						38.2,35.4 					"/>
					<rect x="39.3" y="30.6" class="st2" width="0.9" height="4.8"/>
					<polygon class="st2" points="43.1,35.4 42.4,35.4 40.8,30.6 41.8,30.6 42.8,33.8 43.7,30.6 44.7,30.6 					"/>
					<polygon class="st2" points="45.3,35.4 45.3,30.6 48.5,30.6 48.5,31.4 46.2,31.4 46.2,32.6 48.2,32.6 48.2,33.4 46.2,33.4 
						46.2,34.6 48.5,34.6 48.5,35.4 					"/>
					<path class="st2" d="M51.2,31.4h-0.9v1.3h0.9c0.4,0,0.7-0.3,0.7-0.6S51.7,31.4,51.2,31.4 M52,35.4L51,33.5h-0.7v1.9h-0.9v-4.8
						h1.9c1,0,1.6,0.7,1.6,1.5c0,0.7-0.4,1.1-0.9,1.3l1.1,2.1L52,35.4L52,35.4z"/>
					<path class="st2" d="M55.2,35.5c-0.7,0-1.3-0.2-1.8-0.6l0.6-0.6c0.3,0.3,0.7,0.4,1.2,0.4c0.6,0,0.9-0.2,0.9-0.6
						c0-0.2,0-0.3-0.2-0.4c-0.1-0.1-0.2-0.1-0.4-0.2l-0.6-0.1c-0.4-0.1-0.7-0.2-0.9-0.4c-0.2-0.2-0.3-0.5-0.3-1
						c0-0.9,0.6-1.5,1.7-1.5c0.7,0,1.1,0.2,1.6,0.6l-0.6,0.6c-0.3-0.3-0.7-0.3-1-0.3c-0.5,0-0.7,0.3-0.7,0.6c0,0.1,0,0.3,0.1,0.3
						c0.1,0.1,0.3,0.2,0.5,0.2l0.6,0.1c0.4,0.1,0.7,0.2,0.9,0.4c0.3,0.2,0.4,0.6,0.4,1C57,34.9,56.2,35.5,55.2,35.5"/>
					<rect x="57.9" y="30.6" class="st2" width="0.9" height="4.8"/>
					<polygon class="st2" points="61.8,31.4 61.8,35.4 60.8,35.4 60.8,31.4 59.6,31.4 59.6,30.6 63.1,30.6 63.1,31.4 					"/>
					<polygon class="st2" points="65.7,33.5 65.7,35.4 64.7,35.4 64.7,33.5 63.3,30.6 64.3,30.6 65.2,32.5 66.1,30.6 67.1,30.6 
											"/>
					<path class="st2" d="M11.6,16.1c-0.6-0.3-1-1-0.9-1.6c0.1-0.4,0.4-0.7,0.9-0.7c0.4,0,0.8,0.3,0.9,0.7
						C12.6,15.1,12.2,15.7,11.6,16.1 M4.6,16.3H3.9c-0.5,0-0.8-0.6-0.8-1.1c0-0.5,0.1-1.2,0.8-1.2h0.7V16.3z M27.2,12.9l-0.8,0.8
						l2.7,2.7h-5.8V9.9l-1.1,1.1v5.3h-3.6v-3.5L17.4,14v2.4h-4.3c0.4-0.5,0.8-1.2,0.7-1.9c-0.1-0.9-0.8-1.7-2.1-1.7s-2,0.8-2.1,1.7
						c-0.1,0.7,0.2,1.4,0.7,1.9H5.9v-3.5h-2c-1.2,0-2,0.8-2,2.3c0,1.7,1.1,2.3,2,2.3h27.9L27.2,12.9z"/>
					
						<rect x="26.8" y="10.8" transform="matrix(0.7071 -0.7071 0.7071 0.7071 -2.474873e-02 22.6438)" class="st2" width="1.1" height="1.1"/>
					
						<rect x="18.2" y="18.4" transform="matrix(0.7071 -0.7071 0.7071 0.7071 -7.8718 18.8416)" class="st2" width="1.1" height="1.1"/>
					
						<rect x="16.7" y="18.4" transform="matrix(0.7071 -0.7071 0.7071 0.7071 -8.3382 17.7174)" class="st2" width="1.1" height="1.1"/>
					
						<rect x="11.1" y="10.8" transform="matrix(0.7071 -0.7071 0.7071 0.7071 -4.6186 11.5573)" class="st2" width="1.1" height="1.1"/>
					
						<rect x="4.5" y="10.8" transform="matrix(0.7071 -0.7071 0.7071 0.7071 -6.5441 6.9051)" class="st2" width="1.1" height="1.1"/>
					
						<rect x="2.9" y="10.8" transform="matrix(0.7071 -0.7071 0.7071 0.7071 -7.0105 5.7809)" class="st2" width="1.1" height="1.1"/>
					<path class="st2" d="M45.1,5.4c0-0.6,0.6-1.2,1.4-1.1c0.8,0,1.3,0.5,1.4,1.1l-1.4,1.2C46.2,6.3,45.5,5.7,45.1,5.4 M39.2,6.8
						h-0.7c-0.5,0-0.8-0.6-0.8-1.1c0-0.5,0.1-1.2,0.8-1.2h0.7V6.8z M54.9,4c0.5,0,0.8,0.4,0.8,1.5c0,1-0.3,1.4-0.8,1.4
						c-0.5,0-0.8-0.4-0.8-1.4C54,4.4,54.4,4,54.9,4 M52,7.9c0.6,0,1.1-0.3,1.4-0.7c0.3,0.5,0.9,0.7,1.4,0.7c1.3,0,2.1-1,2.1-2.5
						C56.9,4,56.2,3,54.9,3c-1.2,0-2,0.9-2.1,2.2c0,0.7,0,1.6-1,1.6H48l1.2-1.1c0-1.4-1-2.5-2.7-2.5c-1.7,0-2.7,1.1-2.7,2.5l1.2,1.1
						h-4.6V3.3h-2c-1.2,0-2,0.8-2,2.3c0,1.7,1.1,2.3,2,2.3L52,7.9L52,7.9z"/>
					<polygon class="st2" points="67.1,7.9 62.5,3.4 61.7,4.2 64.3,6.8 59.4,6.8 59.4,0.4 58.3,1.5 58.3,7.9 					"/>
					
						<rect x="62.7" y="8.8" transform="matrix(0.7071 -0.7071 0.7071 0.7071 11.9131 47.4965)" class="st2" width="1.1" height="1.1"/>
					<path class="st2" d="M56.4,17.2c-0.5,0-0.8-0.3-0.8-1.4c0-1,0.3-1.4,0.8-1.4c0.5,0,0.8,0.3,0.8,1.4
						C57.2,16.8,56.9,17.2,56.4,17.2 M62.5,12.9l-0.8,0.8l2.7,2.7h-5c-0.6,0-0.9-0.2-0.9-0.6c0-1.3-0.7-2.4-2.1-2.4
						c-1.3,0-2,0.9-2.1,2.4c0,0.6-0.6,0.6-1.1,0.6H50v-3.5L48.9,14v2.4h-2.1v1.1h6.7c0.4,0,0.8-0.1,1.1-0.2c0.3,0.7,1,1,1.8,1.1
						c0.9,0,1.5-0.4,1.8-1.1c0.4,0.2,0.8,0.2,1.2,0.3v0h7.7L62.5,12.9z"/>
					<path class="st2" d="M44.1,17.5v-4.6L42.9,14v2.4h-3.2c-0.6,0-1.1-0.3-1.1-0.9v-2.6h-1.2v4.3c0,0.6-0.2,0.9-0.9,0.9
						c-0.6,0-0.9-0.3-0.9-0.9v-4.3h-1.2v4.3c0,1.2,0.8,2,2,2c0.1,0,0.1,0,0.3,0c1.1,0,2-0.8,2-2v0c0.3,0.2,0.6,0.3,1,0.3H44.1z"/>
					
						<rect x="36" y="10.8" transform="matrix(0.7071 -0.7071 0.7071 0.7071 2.6853 29.1888)" class="st2" width="1.1" height="1.1"/>
					
						<rect x="43" y="18.4" transform="matrix(0.7071 -0.7071 0.7071 0.7071 -0.6335 36.3182)" class="st2" width="1.1" height="1.1"/>
					
						<rect x="39.3" y="1.2" transform="matrix(0.7071 -0.7071 0.7071 0.7071 10.4362 28.7084)" class="st2" width="1.1" height="1.1"/>
					
						<rect x="37.7" y="1.2" transform="matrix(0.7071 -0.7071 0.7071 0.7071 9.9698 27.5843)" class="st2" width="1.1" height="1.1"/>
				</g>
			</g>
		</g>
	</g>
</g>
</svg>
