<svg xmlns="http://www.w3.org/2000/svg" id="Layer_1" data-name="Layer 1" viewBox="0 -10 108.85 55.8">
	<defs>
		<style>
			.cls-1{fill:#A9A9A9;}
			.cls-2{fill:#666666;}
			.cls-3{fill:#1F1F1F;}
		</style>
	</defs>
	<title>hbku</title>
	<polygon class="cls-1" points="90.22 17.68 90.22 17.68 90.22 0.05 81.4 8.86 90.22 17.68"/>
	<polygon class="cls-2" points="72.58 0.05 72.58 17.68 81.4 8.86 72.58 0.05"/>
	<polygon class="cls-1" points="108.85 0.05 91.21 0.05 100.03 8.86 108.85 0.05"/>
	<polygon class="cls-2" points="91.21 0.05 91.21 17.68 100.03 8.86 91.21 0.05"/>
	<polygon class="cls-2" points="108.85 36.31 108.85 36.31 108.85 18.68 100.03 27.49 108.85 36.31"/>
	<polygon class="cls-1" points="100.03 27.49 91.21 36.31 108.85 36.31 100.03 27.49"/>
	<polygon class="cls-2" points="91.21 18.68 91.21 36.31 100.03 27.49 91.21 18.68"/>
	<polygon class="cls-2" points="90.22 18.68 72.58 18.68 81.4 27.49 90.22 18.68"/>
	<polygon class="cls-1" points="72.58 18.68 72.58 36.31 81.4 27.49 72.58 18.68"/>
	<polygon class="cls-3" points="104.3 15.8 93.1 15.8 91.21 17.68 108.85 17.68 100.03 8.86 98.7 10.2 104.3 15.8"/>
	<polygon class="cls-3" points="85.67 15.8 74.47 15.8 72.58 17.68 90.22 17.68 81.4 8.86 80.07 10.2 85.67 15.8"/>
	<polygon class="cls-3" points="85.67 34.42 74.47 34.42 72.58 36.31 90.22 36.31 81.4 27.49 80.07 28.82 85.67 34.42"/>
	<polygon class="cls-3" points="106.96 34.42 93.1 34.42 91.21 36.31 108.85 36.31 106.96 34.42"/>
	<rect class="cls-3" x="119.67" y="37.65" width="1.88" height="1.88" transform="translate(-12.53 96.68) rotate(-45.02)"/>
	<rect class="cls-3" x="106.92" y="26.5" width="1.89" height="1.88" transform="translate(-8.41 84.35) rotate(-45)"/>
	<rect class="cls-3" x="119.68" y="19.03" width="1.88" height="1.88" transform="translate(0.61 91.19) rotate(-45)"/>
	<polygon class="cls-3" points="2.68 27.7 2.68 25.61 0.98 25.61 0.98 27.7 0 27.7 0 22.69 0.98 22.69 0.98 24.74 2.68 24.74 2.68 22.69 3.65 22.69 3.65 27.7 2.68 27.7"/>
	<path class="cls-3" d="M28.27,27.66L28,26.77H26.19l-0.3.89h-1l1.82-5h0.77l1.83,5h-1ZM27.1,24.12l-0.63,1.82h1.25Z" transform="translate(-20.59 0.05)"/>
	<polygon class="cls-3" points="12.87 27.7 12.87 24.78 11.92 26.68 11.25 26.68 10.29 24.78 10.29 27.7 9.31 27.7 9.31 22.69 10.28 22.69 11.59 25.4 12.89 22.69 13.85 22.69 13.85 27.7 12.87 27.7"/>
	<path class="cls-3" d="M38.47,27.66l-0.3-.89H36.39l-0.3.89h-1l1.82-5h0.77l1.83,5h-1Zm-1.17-3.53-0.63,1.82h1.25Z" transform="translate(-20.59 0.05)"/>
	<path class="cls-3" d="M43.24,27.18a1.83,1.83,0,0,1-1.32.48H40.1v-5h1.81a1.83,1.83,0,0,1,1.32.48,2.53,2.53,0,0,1,.51,2,2.62,2.62,0,0,1-.51,2m-0.68-3.35a0.87,0.87,0,0,0-.73-0.31H41.08v3.26h0.74a0.87,0.87,0,0,0,.73-0.31,2.21,2.21,0,0,0,.21-1.34,2,2,0,0,0-.21-1.3" transform="translate(-20.59 0.05)"/>
	<path class="cls-3" d="M48.64,27.66h-2.1v-5h2a1.37,1.37,0,0,1,1.55,1.41,1.16,1.16,0,0,1-.62,1,1.17,1.17,0,0,1,.69,1.13,1.38,1.38,0,0,1-1.53,1.44m-0.16-4.14h-1v1.16h1a0.58,0.58,0,1,0,0-1.16m0.06,2h-1v1.23h1a0.62,0.62,0,1,0,0-1.23" transform="translate(-20.59 0.05)"/>
	<rect class="cls-3" x="30.58" y="22.69" width="0.98" height="5.01"/><polygon class="cls-3" points="35.69 27.7 33.7 24.63 33.7 27.7 32.73 27.7 32.73 22.69 33.6 22.69 35.59 25.76 35.59 22.69 36.56 22.69 36.56 27.7 35.69 27.7"/>
	<polygon class="cls-3" points="42.28 27.7 40.99 25.43 40.34 26.2 40.34 27.7 39.36 27.7 39.36 22.69 40.34 22.69 40.34 24.88 42.11 22.69 43.3 22.69 41.64 24.68 43.42 27.7 42.28 27.7"/>
	<polygon class="cls-3" points="46.72 27.7 46.72 25.61 45.02 25.61 45.02 27.7 44.05 27.7 44.05 22.69 45.02 22.69 45.02 24.74 46.72 24.74 46.72 22.69 47.7 22.69 47.7 27.7 46.72 27.7"/>
	<path class="cls-3" d="M72.31,27.66L72,26.77H70.23l-0.3.89h-1l1.82-5H71.5l1.83,5h-1Zm-1.17-3.53-0.63,1.82h1.25Z" transform="translate(-20.59 0.05)"/>
	<polygon class="cls-3" points="53.35 27.7 53.35 22.69 54.33 22.69 54.33 26.83 56.61 26.83 56.61 27.7 53.35 27.7"/>
	<rect class="cls-3" x="57.4" y="22.69" width="0.98" height="5.01"/>
	<polygon class="cls-3" points="60.53 23.57 60.53 24.8 62.5 24.8 62.5 25.67 60.53 25.67 60.53 27.7 59.55 27.7 59.55 22.69 62.85 22.69 62.85 23.57 60.53 23.57"/>
	<path class="cls-3" d="M87.15,27.66l-0.29-.89H85.07l-0.3.89h-1l1.82-5h0.77l1.83,5h-1ZM86,24.12l-0.63,1.82h1.25Z" transform="translate(-20.59 0.05)"/>
	<path class="cls-3" d="M51.39,36.29a1.74,1.74,0,0,1-1.84-1.76V31.24h1V34.5a0.87,0.87,0,1,0,1.74,0V31.24h1v3.29a1.75,1.75,0,0,1-1.85,1.76" transform="translate(-20.59 0.05)"/>
	<polygon class="cls-3" points="36.69 36.3 34.7 33.22 34.7 36.3 33.73 36.3 33.73 31.29 34.6 31.29 36.58 34.36 36.58 31.29 37.56 31.29 37.56 36.3 36.69 36.3"/>
	<rect class="cls-3" x="38.73" y="31.29" width="0.98" height="5.01"/>
	<polygon class="cls-3" points="42.7 36.3 41.97 36.3 40.31 31.29 41.33 31.29 42.34 34.55 43.34 31.29 44.36 31.29 42.7 36.3"/>
	<polygon class="cls-3" points="44.97 36.3 44.97 31.29 48.27 31.29 48.27 32.16 45.94 32.16 45.94 33.34 47.92 33.34 47.92 34.21 45.94 34.21 45.94 35.43 48.27 35.43 48.27 36.3 44.97 36.3"/>
	<path class="cls-3" d="M72.48,36.25l-1-2H70.8v2h-1v-5h2a1.51,1.51,0,0,1,1.63,1.53,1.35,1.35,0,0,1-.92,1.31l1.12,2.16H72.48Zm-0.76-4.14H70.8v1.32h0.92a0.66,0.66,0,1,0,0-1.32" transform="translate(-20.59 0.05)"/>
	<path class="cls-3" d="M75.8,36.29A2.36,2.36,0,0,1,74,35.63L74.6,35a1.64,1.64,0,0,0,1.21.42c0.58,0,.89-0.22.89-0.62a0.56,0.56,0,0,0-.15-0.42,0.76,0.76,0,0,0-.44-0.18l-0.61-.08a1.7,1.7,0,0,1-1-.41,1.32,1.32,0,0,1-.36-1,1.54,1.54,0,0,1,1.75-1.52,2.14,2.14,0,0,1,1.62.58l-0.62.61a1.4,1.4,0,0,0-1-.35,0.66,0.66,0,0,0-.77.63,0.48,0.48,0,0,0,.15.36,0.86,0.86,0,0,0,.46.2l0.59,0.08a1.65,1.65,0,0,1,1,.39,1.4,1.4,0,0,1,.39,1.06,1.62,1.62,0,0,1-1.86,1.52" transform="translate(-20.59 0.05)"/>
	<rect class="cls-3" x="57.99" y="31.29" width="0.98" height="5.01"/>
	<polygon class="cls-3" points="62.05 32.16 62.05 36.3 61.07 36.3 61.07 32.16 59.76 32.16 59.76 31.29 63.35 31.29 63.35 32.16 62.05 32.16"/>
	<polygon class="cls-3" points="66.07 34.24 66.07 36.3 65.09 36.3 65.09 34.24 63.59 31.29 64.65 31.29 65.59 33.31 66.51 31.29 67.57 31.29 66.07 34.24"/>
	<path class="cls-3" d="M46.81,12.86L46,13.69l2.76,2.77h-6V9.84L41.58,11v5.46H37.81v-3.6L36.63,14v2.45H32.17a2.48,2.48,0,0,0,.69-2,2,2,0,0,0-2.16-1.78,2.07,2.07,0,0,0-2.18,1.78,2.48,2.48,0,0,0,.7,2h-4.5V12.87H22.63c-1.29,0-2,.79-2,2.41a2.09,2.09,0,0,0,2,2.35H51.58Zm-23.36,3.6H22.7a1.05,1.05,0,0,1-.85-1.18A1.08,1.08,0,0,1,22.7,14h0.75v2.47Zm7.24-.28a1.71,1.71,0,0,1-.9-1.64,0.88,0.88,0,0,1,.9-0.77,0.91,0.91,0,0,1,.89.77,1.68,1.68,0,0,1-.89,1.64" transform="translate(-20.59 0.05)"/>
	<rect class="cls-3" x="46.35" y="10.72" width="1.17" height="1.16" transform="translate(-14.83 36.56) rotate(-45.02)"/>
	<rect class="cls-3" x="37.54" y="18.58" width="1.17" height="1.16" transform="translate(-22.97 32.63) rotate(-45.02)"/>
	<rect class="cls-3" x="35.89" y="18.56" width="1.17" height="1.15" transform="translate(-23.44 31.44) rotate(-45)"/>
	<rect class="cls-3" x="30.11" y="10.74" width="1.17" height="1.16" transform="translate(-19.6 25.08) rotate(-45.02)"/>
	<rect class="cls-3" x="23.3" y="10.72" width="1.17" height="1.16" transform="translate(-21.59 20.24) rotate(-45)"/>
	<rect class="cls-3" x="21.65" y="10.72" width="1.17" height="1.16" transform="translate(-22.07 19.08) rotate(-45.02)"/>
	<path class="cls-3" d="M72.53,7.74A1.62,1.62,0,0,0,74,7a1.64,1.64,0,0,0,1.5.76c1.38,0,2.15-1,2.15-2.55s-0.78-2.56-2.15-2.56a2.13,2.13,0,0,0-2.15,2.24c0,0.67,0,1.69-1.07,1.69H68.34l1.28-1.12a2.78,2.78,0,0,0-5.55,0l1.27,1.13H60.55V3H58.47c-1.29,0-2,.79-2,2.41a2.09,2.09,0,0,0,2,2.35H72.53Zm2.94-4c0.51,0,.86.37,0.86,1.5S76,6.66,75.47,6.66s-0.85-.37-0.85-1.44,0.34-1.49.85-1.49M59.28,6.57H58.54a1.05,1.05,0,0,1-.85-1.18,1.08,1.08,0,0,1,.85-1.29h0.75V6.57Zm6.13-1.45a1.46,1.46,0,0,1,2.85,0L66.84,6.38c-0.32-.26-1.07-0.93-1.43-1.27" transform="translate(-20.59 0.05)"/>
	<polygon class="cls-3" points="67.52 7.79 62.78 3.07 61.95 3.9 64.69 6.62 59.61 6.62 59.61 0 58.42 1.15 58.42 7.79 67.52 7.79"/>
	<rect class="cls-3" x="83.61" y="8.67" width="1.17" height="1.15" transform="translate(-2.5 62.25) rotate(-44.97)"/>
	<path class="cls-3" d="M83.39,12.85l-0.83.83,2.78,2.77H80.1c-0.62,0-.93-0.2-0.93-0.63A2.18,2.18,0,0,0,77,13.39c-1.35,0-2.11,1-2.19,2.43-0.05.61-.65,0.6-1.14,0.63H70.44v-3.6L69.26,14v2.45H67.12v1.18h6.94a2.52,2.52,0,0,0,1.11-.23A2,2,0,0,0,77,18.5a1.94,1.94,0,0,0,1.87-1.14,3,3,0,0,0,1.27.27h8ZM77,17.33c-0.51,0-.86-0.36-0.86-1.41s0.34-1.44.86-1.44,0.86,0.36.86,1.47-0.34,1.38-.86,1.38" transform="translate(-20.59 0.05)"/>
	<path class="cls-3" d="M64.32,17.63V12.87L63.13,14v2.45H59.86a1,1,0,0,1-1.14-.88V12.87H57.45v4.47a0.8,0.8,0,0,1-.89.94,0.82,0.82,0,0,1-.92-0.94V12.87H54.38v4.5a2,2,0,0,0,2,2.11,2.25,2.25,0,0,0,.27,0,2,2,0,0,0,2-2.1v0a2.11,2.11,0,0,0,1,.29h4.61Z" transform="translate(-20.59 0.05)"/>
	<rect class="cls-3" x="55.94" y="10.72" width="1.17" height="1.16" transform="translate(-12.03 43.33) rotate(-45)"/>
	<rect class="cls-3" x="63.14" y="18.58" width="1.17" height="1.16" transform="translate(-15.44 50.79) rotate(-45.07)"/>
	<rect class="cls-3" x="59.36" y="0.78" width="1.17" height="1.15" transform="translate(-3.97 42.85) rotate(-45.03)"/>
	<rect class="cls-3" x="57.71" y="0.78" width="1.17" height="1.15" transform="translate(-4.49 41.65) rotate(-44.98)"/>
</svg>