<svg xmlns:x="http://ns.adobe.com/Extensibility/1.0/" xmlns:i="http://ns.adobe.com/AdobeIllustrator/10.0/" xmlns:graph="http://ns.adobe.com/Graphs/1.0/" xmlns="http://www.w3.org/2000/svg" xmlns:xlink="http://www.w3.org/1999/xlink" version="1.1" id="Layer_1" x="0px" y="0px" viewBox="0 0 260.79 56.55" style="enable-background:new 0 0 260.79 56.55;" xml:space="preserve">
	<switch>
	<g i:extraneous="self">
		<g>
			<path class="st0" d="M106.07,53.44c2.44,0,3.47-2.04,3.47-4.14c0-2.15-1.15-4.15-3.47-4.14c-2.35-0.02-3.5,1.98-3.5,4.14     C102.57,51.41,103.62,53.44,106.07,53.44 M106.91,54.71c-0.28,0.05-0.55,0.06-0.84,0.06c-3.24,0-5.1-2.27-5.1-5.47     c0-3.14,1.88-5.48,5.1-5.48c3.2,0,5.08,2.34,5.08,5.48c0,2.37-1.02,4.21-2.85,5.02l2.46,2.22h-1.89L106.91,54.71z"/>
			<path class="st0" d="M118.92,45.45l-2.1,5.24h4.21L118.92,45.45z M118.18,44.01h1.6l4.48,10.59h-1.65l-1.09-2.67h-5.19     l-1.07,2.67h-1.6L118.18,44.01z"/>
			<polygon class="st0" points="128.29,45.35 125,45.35 125,44.01 133.1,44.01 133.1,45.35 129.8,45.35 129.8,54.6 128.29,54.6         "/>
			<path class="st0" d="M139.39,45.45l-2.1,5.24h4.21L139.39,45.45z M138.65,44.01h1.59l4.47,10.59h-1.65l-1.08-2.67h-5.18     l-1.07,2.67h-1.59L138.65,44.01z"/>
			<path class="st0" d="M149.2,48.57h1.29c1.43,0,2.29-0.64,2.29-1.65c0-0.96-0.74-1.56-2.12-1.56h-1.46V48.57z M147.68,44.01h2.6     c2.1,0,4.11,0.34,4.11,2.88c0,1.29-0.96,2.19-2.19,2.4v0.04c0.48,0.17,0.7,0.41,1.04,1.06l2,4.22h-1.73l-1.62-3.67     c-0.46-1.03-0.97-1.03-1.77-1.03h-0.91v4.7h-1.52V44.01z"/>
			<path class="st0" d="M172.55,50.21c0,2.97-1.51,4.56-4.11,4.56c-2.6,0-4.11-1.59-4.11-4.56v-6.2h1.52v6.01     c0,2.03,0.63,3.42,2.59,3.42c1.96,0,2.59-1.39,2.59-3.42v-6.01h1.52V50.21z"/>
			<polygon class="st0" points="176.77,44.01 178.83,44.01 183.5,52.53 183.54,52.53 183.54,44.01 185.05,44.01 185.05,54.6      183.12,54.6 178.32,45.9 178.28,45.9 178.28,54.6 176.77,54.6    "/>
			<rect x="189.26" y="44.01" class="st0" width="1.51" height="10.59"/>
			<polygon class="st0" points="199.62,54.6 197.73,54.6 193.75,44.01 195.43,44.01 198.7,53.26 198.73,53.26 202.07,44.01      203.67,44.01    "/>
			<polygon class="st0" points="206.71,44.01 212.63,44.01 212.63,45.35 208.23,45.35 208.23,48.44 212.26,48.44 212.26,49.78      208.23,49.78 208.23,53.26 212.63,53.26 212.63,54.6 206.71,54.6    "/>
			<path class="st0" d="M218.02,48.57h1.29c1.44,0,2.28-0.64,2.28-1.65c0-0.96-0.72-1.56-2.12-1.56h-1.46V48.57z M216.5,44.01h2.59     c2.09,0,4.11,0.34,4.11,2.88c0,1.29-0.96,2.19-2.19,2.4v0.04c0.47,0.17,0.7,0.41,1.04,1.06l2,4.22h-1.73l-1.61-3.67     c-0.48-1.03-0.97-1.03-1.78-1.03h-0.91v4.7h-1.52V44.01z"/>
			<path class="st0" d="M232.19,45.61c-0.77-0.29-1.2-0.43-1.98-0.43c-0.86,0-1.86,0.3-1.86,1.4c0,2.04,4.55,1.56,4.55,5.05     c0,2.25-1.74,3.15-3.86,3.15c-0.75,0-1.48-0.21-2.17-0.44l0.15-1.4c0.51,0.21,1.42,0.52,2.19,0.52c0.87,0,2.08-0.48,2.08-1.73     c0-2.36-4.56-1.71-4.56-5c0-1.88,1.49-2.89,3.39-2.89c0.7,0,1.54,0.12,2.27,0.38L232.19,45.61z"/>
			<rect x="236.5" y="44.01" class="st0" width="1.52" height="10.59"/>
			<polygon class="st0" points="244.34,45.35 241.05,45.35 241.05,44.01 249.14,44.01 249.14,45.35 245.86,45.35 245.86,54.6      244.34,54.6    "/>
			<polygon class="st0" points="255.15,50.18 251.02,44.01 252.79,44.01 255.93,48.76 259.01,44.01 260.79,44.01 256.66,50.18      256.66,54.6 255.15,54.6    "/>
			<path class="st0" d="M174.98,17.32c0.45,0,0.83-0.15,1.19-0.46c0.33-0.31,0.5-0.68,0.5-1.13c0-0.45-0.17-0.82-0.5-1.13     c-0.36-0.31-0.74-0.46-1.19-0.46c-0.46,0-0.87,0.14-1.21,0.45c-0.33,0.3-0.52,0.68-0.52,1.14c0,0.45,0.19,0.83,0.52,1.14     C174.11,17.17,174.52,17.32,174.98,17.32"/>
			<path class="st0" d="M178.79,17.32c0.44,0,0.85-0.15,1.18-0.46c0.33-0.31,0.51-0.68,0.51-1.13c0-0.45-0.19-0.82-0.51-1.13     c-0.34-0.31-0.74-0.46-1.18-0.46c-0.47,0-0.86,0.14-1.2,0.45c-0.33,0.3-0.51,0.68-0.51,1.14c0,0.45,0.18,0.83,0.51,1.14     C177.93,17.17,178.32,17.32,178.79,17.32"/>
			<path class="st0" d="M224.56,30.4c-1.06,1-2.34,1.51-3.85,1.51c-1.54,0-2.84-0.51-3.9-1.51c-1.07-1-1.6-2.26-1.6-3.76     c0-1.51,0.53-2.78,1.6-3.78c1.06-1.01,2.36-1.5,3.9-1.5c1.52,0,2.82,0.5,3.87,1.51c1.05,1.02,1.58,2.28,1.58,3.77     C226.16,28.15,225.63,29.4,224.56,30.4 M197.04,31.73c-1.52,0-2.82-0.51-3.88-1.52c-1.06-1-1.59-2.25-1.59-3.74     c0-1.52,0.53-2.78,1.59-3.79c1.07-1,2.36-1.51,3.88-1.51c1.55,0,2.83,0.5,3.89,1.52c1.06,1.01,1.58,2.27,1.58,3.77     c0,1.5-0.53,2.75-1.59,3.74C199.84,31.22,198.56,31.73,197.04,31.73 M226.04,21.11c-1.43-1.43-3.22-2.16-5.34-2.16     c-2.15,0-3.92,0.72-5.36,2.16c-1.43,1.43-2.17,3.22-2.17,5.36c0,2.2,0.67,3.96,1.97,5.34h-12.98c1.57-1.47,2.34-3.31,2.34-5.45     c0-2.13-0.72-3.92-2.14-5.35c-1.43-1.44-3.21-2.15-5.32-2.15c-2.14,0-3.91,0.71-5.34,2.15c-1.43,1.43-2.14,3.21-2.14,5.33     c0,2.16,0.77,3.97,2.32,5.45h-8.85V19.36h-7.4c-1.95,0-3.49,1.15-4.65,2.59c-1.1,1.33-1.64,2.97-1.64,4.96     c0,1.88,0.5,3.43,1.76,4.93c0.42,0.51,0.95,0.89,1.51,1.23c0.4,0.24,0.67,0.33,1.16,0.51c0.54,0.22,1.86,0.4,2.41,0.4h3.49v-2.02     c-2.78,0-4.66-0.21-5.65-0.63c-1.76-0.74-2.64-2.31-2.64-4.72c0-1.3,0.39-2.46,1.17-3.48c0.85-1.11,1.91-1.68,3.18-1.68h5.21     v12.44h37.81c1.14,0.28,2.3,0.34,3.45,0.13c1.78-0.32,3.22-1.21,4.38-2.69c1.09-1.41,1.64-3.05,1.64-4.88     C228.19,24.32,227.47,22.55,226.04,21.11"/>
			<path class="st0" d="M247.69,36.14c-0.46,0-0.85,0.15-1.18,0.46c-0.35,0.31-0.51,0.69-0.51,1.15c0,0.46,0.16,0.84,0.51,1.15     c0.33,0.31,0.72,0.46,1.18,0.46c0.45,0,0.85-0.15,1.18-0.46c0.34-0.31,0.5-0.69,0.5-1.15c0-0.46-0.16-0.84-0.5-1.15     C248.54,36.29,248.14,36.14,247.69,36.14"/>
			<path class="st0" d="M238.87,31.75c-0.96,0-1.68-0.1-2.19-0.24c-0.71-0.21-1.42-0.62-2.1-1.22c-0.61-0.68-1-1.37-1.23-2.1     c-0.14-0.51-0.24-1.24-0.24-2.18V13.57h-2.04v13.17c0.05,1.13,0.19,1.83,0.29,2.18c0.34,1.08,0.92,2.04,1.73,2.86     c0.83,0.82,1.79,1.4,2.88,1.73c0.34,0.1,1.03,0.24,2.17,0.29h22.65v-2.04l-14.8-12.36l-1.45,1.44l12.92,10.91H238.87z"/>
			<path class="st0" d="M150.71,17.21c0.46,0,0.87-0.15,1.2-0.45c0.33-0.3,0.49-0.67,0.49-1.14c0-0.45-0.16-0.83-0.49-1.13     c-0.33-0.31-0.74-0.46-1.2-0.46c-0.46,0-0.86,0.15-1.19,0.46c-0.34,0.31-0.52,0.69-0.52,1.13c0,0.47,0.19,0.84,0.52,1.14     C149.85,17.07,150.25,17.21,150.71,17.21"/>
			<path class="st0" d="M146.71,17.21c0.48,0,0.86-0.15,1.19-0.45c0.34-0.3,0.51-0.67,0.51-1.14c0-0.45-0.17-0.83-0.51-1.13     c-0.32-0.31-0.71-0.46-1.19-0.46c-0.45,0-0.86,0.15-1.19,0.46c-0.35,0.31-0.51,0.69-0.51,1.13c0,0.47,0.16,0.84,0.51,1.14     C145.85,17.07,146.25,17.21,146.71,17.21"/>
			<path class="st0" d="M152.94,28.55c0,1.05,0,2.1-0.01,3.15h-5.4c-1.22-0.13-2.12-0.26-3.1-1.05c-1.26-1.01-2.07-2.64-2.04-4.26     c0.02-1.23,0.44-2.49,1.24-3.43c2.05-2.42,6.67-2.27,8.64,0.13c0.59,0.72,0.68,1.59,0.66,2.47     C152.93,26.55,152.94,27.55,152.94,28.55 M132.19,30.43c-1.6,1.27-3.77,1.28-5.72,1.28c-2.45,0.01-4.9-0.01-7.36-0.01v-5.8     c0.99-0.97,2.22-1.88,3.7-2.73c2.67-1.54,6.26-2.3,9.13-0.63C134.75,24.17,134.55,28.54,132.19,30.43 M153.79,21.71     c-1.03-1.18-2.47-2.04-3.99-2.37c-3.09-0.62-6.82,0.66-8.39,3.34c-1.42,2.44-1.44,5.65,0.23,7.93c0.15,0.2,0.73,1.08,0.98,1.08     h-0.03v-0.01h-8.84c0.25,0,0.82-0.81,0.97-0.99c2.07-2.66,1.83-7.14-0.82-9.35c-0.02-0.01-0.03-0.02-0.03-0.03     c-1.53-1.24-3.3-1.65-5.21-1.75c-2.67-0.14-5.14,0.64-7.34,2.1c-0.75,0.49-1.48,1-2.19,1.52v-9.63h-2.03v18.14h-9.66v-8.02h-2.04     v7.47c0,1.32-0.46,2.46-1.38,3.4c-0.93,0.93-2.07,1.37-3.4,1.27v2.29c1.36,0,2.62-0.4,3.74-1.21c1.14-0.81,1.96-1.84,2.48-3.12     h35.75h12.39v-7.61C154.98,24.54,154.91,23.01,153.79,21.71"/>
			<polygon class="st1" points="7.72,18.56 10.13,9.62 10.13,45.16 7.72,47.41    "/>
			<polygon class="st1" points="42.75,39.83 42.75,45.15 49.77,37.77    "/>
			<polygon class="st2" points="33.73,54.62 62.72,54.62 49.78,37.77    "/>
			<polygon class="st2" points="57.61,37.48 57.61,6.65 55.5,5.91 55.5,6.47 57.05,7.02 57.05,37.34    "/>
			<polygon class="st2" points="60.89,38.24 60.89,7.81 58.77,7.06 58.77,7.62 60.42,8.2 60.42,38.13    "/>
			<polygon class="st2" points="64.16,39.01 64.16,8.96 62.05,8.22 62.05,8.78 63.61,9.33 63.61,38.87    "/>
			<polygon class="st2" points="67.42,39.77 67.42,10.11 65.31,9.37 65.31,9.93 66.91,10.49 66.91,39.65    "/>
			<polygon class="st2" points="70.68,40.53 70.68,11.26 68.57,10.52 68.57,11.08 70.1,11.62 70.1,40.39    "/>
			<polygon class="st2" points="73.93,41.29 73.93,12.4 71.82,11.66 71.82,12.22 73.39,12.77 73.39,41.16    "/>
			<polygon class="st2" points="54.32,36.71 54.32,5.5 52.2,4.75 52.2,5.31 53.76,5.86 53.76,36.57    "/>
			<polygon class="st3" points="86.93,54.62 76.41,43.97 49.78,37.77 62.72,54.62    "/>
			<path class="st0" d="M20.02,38.76H17.8c0.41,0.34,0.84,0.65,1.29,0.94C19.4,39.38,19.75,39.03,20.02,38.76"/>
			<path class="st0" d="M29.44,38.68v3.05c-0.35,0.07-0.7,0.12-1.05,0.16c-0.54-0.54-1.33-1.33-1.57-1.56     c-0.24,0.24-1.03,1.03-1.57,1.57c0.51,0.06,1.02,0.09,1.54,0.09c2.12,0,4.13-0.47,5.93-1.3v-2H29.44z"/>
			<path class="st0" d="M20.38,38.21v-4.09h-4.11v3.2c-0.19-0.21-0.38-0.43-0.56-0.66c0.62,0.77,1.32,1.48,2.08,2.11     c-0.22-0.18-0.43-0.36-0.64-0.56H20.38z"/>
			<path class="st0" d="M24.25,38.72h-3.28v2.02c1.33,0.6,2.76,1,4.27,1.16c-0.33-0.04-0.66-0.09-0.99-0.15V38.72z"/>
			<path class="st0" d="M20.42,39.15L19.57,40c0.45,0.27,0.92,0.51,1.4,0.73c-0.19-0.08-0.37-0.17-0.55-0.26V39.15z"/>
			<path class="st0" d="M15.73,30.25h-2.92c-0.06-0.36-0.12-0.73-0.15-1.11c0.53-0.53,1.24-1.24,1.47-1.47     c-0.23-0.23-0.92-0.92-1.45-1.45c0.03-0.23,0.06-0.46,0.09-0.69l1.83,1.82h3.09l-1.8-1.82h-3.11c0.03-0.18,0.06-0.37,0.1-0.55     h2.86V21.7h-1.77c-0.88,1.84-1.37,3.91-1.37,6.09c0,2.05,0.44,4,1.22,5.76h1.92V30.25z"/>
			<path class="st0" d="M15.32,21.14l-0.69-0.69c-0.24,0.4-0.46,0.82-0.67,1.24c0.09-0.19,0.18-0.37,0.28-0.56H15.32z"/>
			<path class="st0" d="M14.08,34.1c0.13,0.26,0.27,0.52,0.42,0.77l0.77-0.77H14.08z"/>
			<path class="st0" d="M14.79,35.36c0.28,0.45,0.59,0.88,0.93,1.3v-2.23C15.45,34.69,15.1,35.04,14.79,35.36"/>
			<path class="st0" d="M37.02,21.78h-3.34c0.54,0.54,1.42,1.41,1.67,1.66C35.62,23.19,36.49,22.32,37.02,21.78"/>
			<path class="st0" d="M29.46,29.34c0.54-0.54,1.41-1.41,1.67-1.67C30.88,27.41,30,26.54,29.46,26V29.34z"/>
			<polygon class="st0" points="35.11,23.98 33.29,22.17 33.29,25.16 35.11,26.99    "/>
			<path class="st0" d="M34.58,39.65c-0.16,0.1-0.32,0.21-0.48,0.31l-0.82-0.82v1.27c0.89-0.46,1.73-1.01,2.5-1.64h-2.1     C33.94,39.02,34.27,39.35,34.58,39.65"/>
			<rect x="29.45" y="21.7" class="st0" width="3.29" height="3.29"/>
			<polygon class="st0" points="31.6,27.36 34.69,27.36 32.89,25.54 29.78,25.54    "/>
			<path class="st0" d="M33.27,34.12v4h0.01v0.09h3.14c-0.21,0.19-0.42,0.38-0.64,0.55c0.57-0.47,1.11-0.99,1.6-1.54v-3.11H33.27z"/>
			<path class="st0" d="M37.94,36.56c-0.18,0.22-0.36,0.44-0.55,0.66c0.53-0.59,1.01-1.23,1.43-1.91c-0.3-0.3-0.63-0.63-0.88-0.89     V36.56z"/>
			<path class="st0" d="M15.72,20.75V18.9c-0.4,0.49-0.76,1.01-1.09,1.55c0.1-0.16,0.2-0.32,0.31-0.48     C15.21,20.24,15.49,20.53,15.72,20.75"/>
			<polygon class="st0" points="35.66,26.95 37.42,25.21 37.42,22.16 35.66,23.93    "/>
			<path class="st0" d="M26.83,14.86c0.19-0.19,0.73-0.73,1.21-1.21c-0.41-0.04-0.83-0.06-1.25-0.06c-0.64,0-1.27,0.05-1.89,0.13     c0.23-0.03,0.47-0.06,0.7-0.08C26.1,14.13,26.64,14.67,26.83,14.86"/>
			<path class="st0" d="M17.46,17.09c0.22-0.19,0.44-0.38,0.68-0.56C17.9,16.72,17.68,16.9,17.46,17.09"/>
			<path class="st0" d="M20.42,15.1c0.18-0.09,0.36-0.17,0.54-0.26C20.78,14.93,20.6,15.01,20.42,15.1"/>
			<path class="st0" d="M14.08,34.1c-0.09-0.18-0.18-0.37-0.26-0.55C13.9,33.73,13.98,33.92,14.08,34.1"/>
			<path class="st0" d="M37.88,25.54l-1.85,1.82h3.07l1.72-1.72c0.03,0.23,0.06,0.47,0.09,0.7c-0.51,0.51-1.13,1.13-1.33,1.33     c0.21,0.21,0.83,0.83,1.35,1.34c-0.03,0.39-0.08,0.77-0.14,1.14h-2.85v3.29h1.88c-0.08,0.19-0.17,0.37-0.25,0.56     c0.91-1.88,1.43-3.98,1.43-6.21c0-0.88-0.08-1.73-0.24-2.56c0.02,0.1,0.04,0.21,0.06,0.31H37.88z"/>
			<path class="st0" d="M28.9,13.75c0.18,0.03,0.35,0.06,0.53,0.09C29.25,13.81,29.08,13.77,28.9,13.75"/>
			<path class="st0" d="M38.68,20.03c0.1,0.16,0.2,0.32,0.3,0.48C38.88,20.34,38.78,20.19,38.68,20.03"/>
			<path class="st0" d="M39.11,34.83c-0.09,0.16-0.19,0.32-0.29,0.48C38.92,35.15,39.02,34.99,39.11,34.83"/>
			<path class="st0" d="M33.28,40.41c-0.18,0.09-0.36,0.18-0.54,0.27C32.92,40.59,33.1,40.5,33.28,40.41"/>
			<path class="st0" d="M14.78,35.35c-0.1-0.16-0.2-0.32-0.29-0.48C14.59,35.03,14.68,35.2,14.78,35.35"/>
			<path class="st0" d="M19.57,40c-0.16-0.1-0.32-0.2-0.48-0.3C19.25,39.81,19.41,39.9,19.57,40"/>
			<path class="st0" d="M31.06,19.09c0.26,0.26,1.13,1.13,1.67,1.66v-3.33C32.18,17.96,31.32,18.83,31.06,19.09"/>
			<path class="st0" d="M20.38,16.12v-0.04l0.03,0.03V15.1c-0.4,0.2-0.79,0.42-1.17,0.66c0.16-0.1,0.32-0.2,0.49-0.29L20.38,16.12z"/>
			<path class="st0" d="M16.27,21.14h0.02v0.09h4.09v-4.13h-2.92c-0.63,0.55-1.21,1.15-1.74,1.81c0.18-0.22,0.36-0.44,0.55-0.65     V21.14z"/>
			<path class="st0" d="M24.25,16.51v-2.69c0.18-0.03,0.37-0.06,0.55-0.09v2.88l1.77,1.8V15.4l-1.68-1.68     c-1.38,0.18-2.7,0.57-3.93,1.12v1.67H24.25z"/>
			<path class="st0" d="M19.25,15.77c-0.38,0.24-0.75,0.5-1.11,0.77h1.88C19.79,16.32,19.52,16.04,19.25,15.77"/>
			<path class="st0" d="M32.74,16.54V14.9c0.19,0.09,0.37,0.18,0.55,0.27v0.99l0.64-0.64c0.17,0.1,0.33,0.2,0.49,0.3     c-0.25,0.26-0.52,0.51-0.73,0.72h1.76c-1.72-1.33-3.77-2.27-5.99-2.69v2.69H32.74z"/>
			<path class="st0" d="M33.28,17.09v4.05h0.01v0.09h4.1v-2.88c0.19,0.22,0.38,0.44,0.56,0.67c-0.73-0.93-1.57-1.76-2.5-2.48     c0.23,0.18,0.45,0.36,0.67,0.55H33.28z"/>
			<path class="st0" d="M27.14,15.35v3.02l1.76-1.74v-2.88c-0.28-0.04-0.56-0.07-0.84-0.1c0.23,0.02,0.47,0.05,0.7,0.08L27.14,15.35     z"/>
			<path class="st0" d="M38.67,20.03c-0.23-0.35-0.47-0.68-0.73-1.01v1.73C38.16,20.54,38.42,20.28,38.67,20.03"/>
			<path class="st0" d="M39.33,21.14c0.1,0.18,0.19,0.37,0.28,0.56h-1.63v3.29h2.73c-0.32-1.61-0.92-3.11-1.73-4.47l-0.63,0.63     H39.33z"/>
			<polygon class="st0" points="32.27,17.09 29.21,17.09 27.5,18.78 30.59,18.78    "/>
			<polygon class="st0" points="24.81,41.55 26.57,39.79 26.57,36.7 24.81,38.44    "/>
			<polygon class="st0" points="24.81,33.63 26.57,35.41 26.57,32.4 24.81,30.64    "/>
			<polygon class="st0" points="23.14,36.33 21.32,38.16 24.31,38.16 26.16,36.33    "/>
			<path class="st0" d="M28.49,30.2h-3.34c0.54,0.54,1.41,1.41,1.67,1.67C27.08,31.61,27.95,30.75,28.49,30.2"/>
			<polygon class="st0" points="32.33,21.14 30.52,19.33 27.5,19.33 29.29,21.14    "/>
			<path class="st0" d="M18.35,31.9c-0.26,0.26-1.13,1.13-1.67,1.66h3.33C19.48,33.02,18.61,32.16,18.35,31.9"/>
			<polygon class="st0" points="18.65,31.41 20.38,33.14 20.38,33.09 20.42,33.13 20.42,30.12 18.65,28.34    "/>
			<polygon class="st0" points="27.13,39.84 28.89,41.6 28.89,38.54 27.13,36.76    "/>
			<polygon class="st0" points="22.03,27.91 19.01,27.91 20.78,29.7 23.82,29.7    "/>
			<polygon class="st0" points="31.67,27.91 29.89,29.7 32.87,29.7 34.69,27.91    "/>
			<path class="st0" d="M35.36,31.9c-0.25,0.26-1.13,1.13-1.67,1.66h3.34C36.49,33.02,35.62,32.16,35.36,31.9"/>
			<polygon class="st0" points="39.04,27.91 36.02,27.91 37.69,29.6 40.73,29.6    "/>
			<polygon class="st0" points="35.66,31.41 37.38,33.14 37.38,30.07 35.66,28.34    "/>
			<path class="st0" d="M38.29,34l0.82,0.82c0.16-0.27,0.3-0.54,0.44-0.82H38.29z"/>
			<polygon class="st0" points="27.48,36.33 29.26,38.12 32.3,38.12 30.51,36.33    "/>
			<path class="st0" d="M31.05,36.1c0.26,0.25,1.12,1.13,1.67,1.66v-3.33C32.17,34.97,31.31,35.84,31.05,36.1"/>
			<polygon class="st0" points="35.11,28.27 33.29,30.06 33.29,33.18 35.11,31.37    "/>
			<rect x="29.45" y="30.25" class="st0" width="3.29" height="3.29"/>
			<polygon class="st0" points="18.1,28.28 16.29,30.06 16.29,33.18 18.1,31.37    "/>
			<path class="st0" d="M22.6,36.1c-0.25-0.26-1.13-1.13-1.66-1.67v3.33C21.47,37.22,22.34,36.35,22.6,36.1"/>
			<path class="st0" d="M22.58,27.67c0.26,0.25,1.12,1.13,1.66,1.67V26C23.7,26.54,22.84,27.42,22.58,27.67"/>
			<polygon class="st0" points="32.27,34.1 29.21,34.1 27.5,35.78 30.58,35.78    "/>
			<polygon class="st0" points="27.13,32.35 27.13,35.37 28.9,33.63 28.9,30.58    "/>
			<rect x="20.97" y="21.7" class="st0" width="3.28" height="3.29"/>
			<polygon class="st0" points="28.9,21.54 27.14,19.76 27.14,22.83 28.9,24.6    "/>
			<rect x="24.8" y="25.54" class="st0" width="4.11" height="4.11"/>
			<rect x="20.97" y="30.25" class="st0" width="3.28" height="3.29"/>
			<polygon class="st0" points="14.66,27.91 12.88,29.7 15.87,29.7 17.68,27.91    "/>
			<polygon class="st0" points="26.16,35.78 24.5,34.1 21.38,34.1 23.07,35.78    "/>
			<polygon class="st0" points="26.16,19.33 23.15,19.33 21.34,21.14 24.33,21.14    "/>
			<polygon class="st0" points="26.17,18.78 24.48,17.06 21.37,17.06 23.08,18.78    "/>
			<path class="st0" d="M22.61,19.09c-0.25-0.26-1.13-1.13-1.67-1.67v3.33C21.48,20.22,22.35,19.34,22.61,19.09"/>
			<polygon class="st0" points="18.65,26.95 20.42,25.21 20.42,22.16 18.65,23.93    "/>
			<polygon class="st0" points="22.1,27.36 23.93,25.54 20.87,25.54 19.03,27.36    "/>
			<path class="st0" d="M20.02,21.78h-3.33c0.54,0.54,1.41,1.41,1.67,1.66C18.61,23.19,19.48,22.32,20.02,21.78"/>
			<polygon class="st0" points="18.1,23.98 16.29,22.17 16.29,25.16 18.1,26.99    "/>
			<path class="st0" d="M25.17,24.98h3.33c-0.53-0.54-1.41-1.41-1.66-1.66C26.58,23.57,25.71,24.44,25.17,24.98"/>
			<polygon class="st0" points="24.81,24.56 26.58,22.78 26.58,19.69 24.81,21.44    "/>
			<path class="st0" d="M14.79,35.36L14.79,35.36L14.79,35.36z"/>
			<polyline class="st0" points="39.11,34.82 39.11,34.82 39.11,34.83 39.11,34.82    "/>
			<path class="st0" d="M25.25,41.89L25.25,41.89L25.25,41.89z"/>
			<path class="st0" d="M19.09,39.7L19.09,39.7L19.09,39.7z"/>
			<polyline class="st0" points="33.28,40.41 33.28,40.41 33.28,40.41 33.28,40.41    "/>
			<polygon class="st0" points="37.39,37.22 37.39,37.22 37.39,37.22    "/>
			<polygon class="st0" points="14.08,34.1 14.08,34.1 14.08,34.1 14.08,34.1    "/>
			<path class="st0" d="M29.45,13.84c-0.01,0-0.02,0-0.02,0C29.44,13.84,29.44,13.84,29.45,13.84"/>
			<path class="st0" d="M35.45,16.54L35.45,16.54L35.45,16.54z"/>
			<path class="st0" d="M39.55,34L39.55,34L39.55,34z"/>
			<polygon class="st0" points="28.89,13.75 28.89,13.75 28.9,13.75    "/>
			<polyline class="st0" points="38.98,20.51 38.98,20.51 38.98,20.51    "/>
			<path class="st0" d="M40.71,24.98L40.71,24.98c0.02,0.08,0.03,0.16,0.04,0.24C40.73,25.14,40.72,25.06,40.71,24.98"/>
			<polygon class="st0" points="38.67,20.03 38.67,20.03 38.68,20.03 38.67,20.03    "/>
			<path class="st0" d="M37.95,19.02L37.95,19.02L37.95,19.02z"/>
			<path class="st0" d="M15.72,18.9L15.72,18.9L15.72,18.9z"/>
			<path class="st0" d="M14.63,20.45L14.63,20.45L14.63,20.45z"/>
			<polyline class="st0" points="13.96,21.7 13.96,21.7 13.96,21.7 13.96,21.7    "/>
			<polyline class="st0" points="20.97,14.84 20.97,14.84 20.97,14.84    "/>
			<polygon class="st0" points="20.42,15.1 20.42,15.1 20.42,15.1 20.42,15.1    "/>
			<polygon class="st0" points="42.75,39.83 49.77,37.77 49.77,0 28.75,8.65 28.75,9.62 42.75,9.62    "/>
			<polygon class="st0" points="42.75,45.15 42.74,45.16 10.13,45.16 0,54.62 51.86,54.62 42.75,45.16    "/>
			<polygon class="st0" points="53.76,5.86 52.2,5.31 52.2,36.22 53.76,36.57    "/>
			<polygon class="st0" points="57.05,7.02 55.49,6.47 55.49,36.98 57.05,37.34    "/>
			<polygon class="st0" points="60.42,8.2 58.77,7.62 58.77,37.75 60.42,38.13    "/>
			<polygon class="st0" points="63.61,9.33 62.05,8.78 62.05,38.51 63.61,38.87    "/>
			<polygon class="st0" points="66.92,10.49 65.31,9.93 65.31,39.27 66.92,39.65    "/>
			<polygon class="st0" points="70.1,11.62 68.57,11.08 68.57,40.04 70.1,40.39    "/>
			<polygon class="st0" points="73.39,12.77 71.82,12.22 71.82,40.79 73.39,41.16    "/>
		</g>
	</g>
</switch>

</svg>