<svg id="Capa_1" enable-background="new 0 0 512 512" viewBox="0 0 512 512" xmlns="http://www.w3.org/2000/svg">
    <g>
        <path fill="#e42d5a" d="m256 120.5c-74.715 0-135.5 60.785-135.5 135.5s60.785 135.5 135.5 135.5 135.5-60.785 135.5-135.5-60.785-135.5-135.5-135.5zm48.341 119.22-49.333 53c-2.774 2.98-6.64 4.705-10.711 4.778-.089.001-.179.002-.269.002-3.974 0-7.791-1.578-10.606-4.394l-25.389-25.389c-5.858-5.857-5.858-15.355 0-21.213 5.858-5.857 15.356-5.857 21.213 0l14.396 14.396 38.741-41.62c5.645-6.064 15.136-6.404 21.2-.76 6.062 5.645 6.402 15.136.758 21.2z"/>
        <path fill="#63bbe6" d="m497 241h-19.939c-3.556-53.537-26.093-103.381-64.387-141.675-38.293-38.293-88.137-60.831-141.674-64.386v-19.939c0-8.284-6.716-15-15-15s-15 6.716-15 15v19.939c-53.537 3.556-103.381 26.094-141.675 64.387-38.293 38.293-60.831 88.137-64.386 141.674h-19.939c-8.284 0-15 6.716-15 15s6.716 15 15 15h19.939c3.556 53.537 26.093 103.381 64.387 141.675 38.294 38.293 88.138 60.831 141.675 64.386v19.939c0 8.284 6.716 15 15 15s15-6.716 15-15v-19.939c53.537-3.556 103.381-26.094 141.675-64.386 38.293-38.294 60.831-88.138 64.387-141.675h19.937c8.284 0 15-6.716 15-15s-6.716-15-15-15zm-226 205.986v-18.844c0-8.284-6.716-15-15-15s-15 6.716-15 15v18.844c-93.698-7.291-168.695-82.288-175.986-175.986h18.843c8.284 0 15-6.716 15-15s-6.716-15-15-15h-18.843c7.291-93.698 82.288-168.695 175.986-175.986v18.844c0 8.284 6.716 15 15 15s15-6.716 15-15v-18.844c93.698 7.291 168.695 82.288 175.986 175.986h-18.843c-8.284 0-15 6.716-15 15s6.716 15 15 15h18.843c-7.291 93.698-82.288 168.695-175.986 175.986z"/>
    </g>
</svg>