<svg id="Capa_1" enable-background="new 0 0 512.001 512.001" viewBox="0 0 512.001 512.001" xmlns="http://www.w3.org/2000/svg">
    <g>
        <path fill="#e42d5a" d="m507.607 275.656-67.815-67.815c-5.857-5.859-15.355-5.857-21.213 0-157.549 157.546-125.588 125.587-154.204 154.202-15.281 15.281-35.599 23.697-57.209 23.697-44.714 0-80.906-36.187-80.906-80.906 0-21.61 8.416-41.928 23.691-57.203 86.653-86.556 154.293-153.984 155.384-155.317 4.16-5.069 4.619-12.471.648-18.122-1.15-1.628 4.753 4.421-69.466-69.798-5.157-5.158-13.081-5.741-18.858-1.923-1.858 1.221 7.832-8.253-156.731 156.125-39.09 39.091-60.727 91.132-60.927 146.537-.41 114.5 91.413 206.867 206.097 206.867 54.291 0 107.057-20.68 147.307-60.929l154.202-154.202c5.858-5.857 5.858-15.355 0-21.213zm-235.099-192.846-47.336 47.283-46.57-46.57 47.31-47.31zm-190.372 97.005 75.208-75.124 46.603 46.603-75.203 75.119c-39.904 39.904-42.904 102.265-9.894 145.524l-47.567 47.567c-58.173-68.909-55.227-173.609 10.853-239.689zm250.056 250.044c-66.482 66.482-171.241 68.647-239.695 10.858l47.566-47.566c43.248 33.002 105.606 30.025 145.525-9.894l75.074-75.074 46.602 46.603zm96.286-96.287-46.602-46.603 47.309-47.309 46.603 46.603z"/>
        <path fill="#63bbe6" d="m306.584 198.708c3.712 7.426 12.731 10.406 20.124 6.708l64-32c9.147-4.573 11.135-16.786 3.898-24.022l-16.557-16.557 52.042-23.13c7.57-3.364 10.979-12.229 7.615-19.799-3.364-7.571-12.231-10.978-19.799-7.615l-72 32c-9.597 4.264-11.964 16.866-4.515 24.313l17.284 17.284-45.386 22.693c-7.408 3.705-10.411 12.716-6.706 20.125z"/>
    </g>
</svg>