<?xml version="1.0" encoding="iso-8859-1"?>
<!-- Generator: Adobe Illustrator 21.0.0, SVG Export Plug-In . SVG Version: 6.00 Build 0)  -->
<svg xmlns="http://www.w3.org/2000/svg" xmlns:xlink="http://www.w3.org/1999/xlink" version="1.1" id="Capa_1" x="0px" y="0px" viewBox="0 0 512 512" style="enable-background:new 0 0 512 512;" xml:space="preserve">
<g>
	<path fill="#e42d5a" d="M406.986,420.503H306.348c-8.284,0-15,6.716-15,15c0,8.284,6.716,15,15,15h100.639c8.284,0,15-6.716,15-15   C421.986,427.219,415.27,420.503,406.986,420.503z"/>
    <path fill="#e42d5a" d="M511.1,303.458l-29.114-80.515V15c0-8.284-6.716-15-15-15H80.994c-8.284,0-15,6.716-15,15v105.5H15.002   c-8.284,0-15,6.716-15,15v328.504C0.002,490.469,21.533,512,47.998,512c0.761,0,1.518-0.022,2.271-0.058   c0.397,0.032,0.796,0.058,1.202,0.058h365.516c35.841,0,65-29.159,65-65V330.029l20.166-7.386   C509.909,319.803,513.909,311.226,511.1,303.458z M90.461,441.473L34.18,285.828l387.348-141.861l56.281,155.645L90.461,441.473z    M391.986,120.5H162.939V88.507h229.047V120.5z M95.994,30h355.992v109.978l-7.368-20.376c-1.356-3.751-4.151-6.808-7.767-8.494   c-3.614-1.685-7.753-1.862-11.498-0.49l-3.367,1.233V73.507c0-8.284-6.716-15-15-15H147.939c-8.284,0-15,6.716-15,15V135.5   c0,8.284,6.716,15,15,15h168.516l-81.916,30.001h-86.599c-8.284,0-15,6.716-15,15c0,8.284,6.716,15,15,15h4.686l-56.631,20.74   V135.5V30z M65.994,150.5v91.729L30.002,255.41V150.5H65.994z M30.002,464.004V362.497l35.992,99.536v1.971   c0,9.923-8.073,17.996-17.996,17.996C38.075,482,30.002,473.927,30.002,464.004z M451.986,447c0,19.299-15.701,35-35,35H92.48   c1.339-3.296,2.325-6.771,2.903-10.382l57.654-21.115h95.54c8.284,0,15-6.716,15-15c0-8.284-6.716-15-15-15h-13.627l81.917-30.001   h90.118c8.284,0,15-6.716,15-15c0-8.284-6.716-15-15-15h-8.205l53.205-19.486V447z"/>
    <path fill="#63bbe6" d="M153.625,286.036c-1.544-4.24-5.088-8.204-9.46-6.612l-45.978,16.734c-4.505,1.64-8.237,5.4-6.694,9.64l30.624,84.14   c1.544,4.24,7.482,4.479,12.649,2.599c5.168-1.881,9.564-5.882,8.021-10.122l-12.443-34.187l20.008-7.282   c4.373-1.592,4.685-6.506,3.383-10.084c-1.543-4.239-5.195-7.262-9.17-5.815l-20.008,7.282l-8.15-22.393l34.318-12.49   C154.699,295.998,155.408,290.939,153.625,286.036z"/>
    <path fill="#63bbe6" d="M255.699,337.267l-54.196-71.81c-3.145-4.105-9.928-4.188-16.023-1.97c-6.096,2.218-11.238,6.642-11.008,11.809   l4.773,89.797c0.061,0.578,0.121,1.156,0.266,1.554c1.783,4.902,10.639,5.731,16.336,3.658c3.313-1.206,5.577-3.23,5.359-6.303   l-1.523-18.202l27.958-10.176l10.534,14.923c1.807,2.492,4.843,2.589,8.156,1.383c5.697-2.073,11.947-8.4,10.163-13.303   C256.35,338.229,256.024,337.747,255.699,337.267z M198.137,328.356l-3.252-39.032l22.598,31.99L198.137,328.356z"/>
    <path fill="#63bbe6" d="M336.604,304.367l-42.716-32.02l11.795-35.206c0.529-1.843,0.265-3.396-0.121-4.456c-1.881-5.169-10.75-8.094-16.049-6.164   c-2.121,0.771-3.685,2.242-4.371,4.893l-11.998,44.132l-11.574-31.801c-1.592-4.373-7.436-4.348-12.604-2.467   c-5.167,1.881-9.658,5.617-8.067,9.99l30.673,84.271c1.543,4.24,7.482,4.479,12.649,2.599c5.168-1.881,9.564-5.882,8.021-10.122   l-8.729-23.982l2.96-9.182l35.196,26.204c2.736,2.155,5.771,2.251,8.555,1.238c5.963-2.171,10.574-9.701,8.693-14.868   C338.483,306.233,337.652,305.185,336.604,304.367z"/>
    <path fill="#63bbe6" d="M405.125,273.726l-35.51,12.925l-8.199-22.526l19.875-7.233c4.373-1.592,4.685-6.507,3.383-10.085   c-1.543-4.239-5.193-7.262-9.17-5.815l-19.875,7.234l-8.15-22.393l35.511-12.925c3.976-1.446,4.685-6.507,2.9-11.409   c-1.544-4.24-5.087-8.204-9.46-6.612l-47.17,17.169c-4.506,1.64-8.238,5.4-6.695,9.64l30.624,84.14   c1.544,4.24,6.82,4.721,11.325,3.081l47.17-17.169c4.373-1.592,4.541-6.905,2.998-11.145   C412.896,275.698,409.1,272.279,405.125,273.726z"/>
</g>
</svg>
