<svg viewBox="0 0 512.0005 512" xmlns="http://www.w3.org/2000/svg">
    <path fill="#63bbe6" d="m64.394531 296.59375c4.320313 4.304688 10.753907 5.59375 16.347657 3.25 5.609374-2.3125 9.257812-7.792969 9.257812-13.855469v-29.988281h76c33.09375 0 60 26.910156 60 60v181c0 8.292969 6.710938 15 15 15h30c8.292969 0 15-6.707031 15-15v-181c0-66.167969-53.832031-120-120-120h-76v-29.996094c0-6.0625-3.648438-11.542968-9.257812-13.855468-5.625-2.34375-12.039063-1.023438-16.347657 3.25l-60 59.996093c-5.859375 5.859375-5.859375 15.351563 0 21.210938zm0 0"/>
    <path fill="#e42d5a" d="m256 196.765625c9.304688-7.042969 19.1875-13.304687 30-18.050781v-88.714844h29.996094c6.0625 0 11.542968-3.648438 13.855468-9.257812 2.332032-5.609376 1.042969-12.054688-3.25-16.347657l-59.996093-60c-2.929688-2.929687-6.765625-4.394531-10.605469-4.394531-3.835938 0-7.675781 1.464844-10.605469 4.394531l-59.996093 60c-4.292969 4.292969-5.582032 10.738281-3.25 16.347657 2.3125 5.609374 7.792968 9.257812 13.855468 9.257812h29.996094v88.714844c10.8125 4.746094 20.695312 11.007812 30 18.050781zm0 0"/>
    <path fill="#63bbe6" d="m447.605469 155.398438c-4.308594-4.273438-10.722657-5.59375-16.347657-3.25-5.609374 2.3125-9.257812 7.792968-9.257812 13.855468v29.996094h-76c-25.238281 0-48.617188 7.917969-67.964844 21.28125 13.394532 15.183594 23.566406 32.984375 29.976563 52.664062 10.378906-8.578124 23.5-13.945312 37.988281-13.945312h76v29.988281c0 6.0625 3.648438 11.542969 9.257812 13.855469 5.597657 2.34375 12.027344 1.054688 16.347657-3.25l60-59.988281c5.859375-5.859375 5.859375-15.351563 0-21.210938zm0 0"/>
</svg>