<svg id="Capa_1" enable-background="new 0 0 511.979 511.979" viewBox="0 0 511.979 511.979" xmlns="http://www.w3.org/2000/svg">
    <g>
        <path fill="#63bbe6" d="m173.951 184.394c-5.858 5.858-5.858 15.355 0 21.213 74.278 74.278 100.447 94.393 143.028 94.393 40.454 0 64.515-15.879 143.028-94.394 5.858-5.858 5.858-15.355 0-21.213-64.811-64.812-94.392-94.393-143.028-94.393-48.635 0-78.216 29.581-143.028 94.394zm143.028 85.606c-27.519 0-44.564-9.117-111.171-75.016 56.942-56.671 78.568-74.984 111.171-74.984 32.604 0 54.225 18.308 111.167 74.979-69.505 68.65-85.601 75.021-111.167 75.021z"/>
        <path fill="#e42d5a" d="m271.979 195c0 24.813 20.187 45 45 45s45-20.187 45-45-20.187-45-45-45-45 20.187-45 45zm60 0c0 8.271-6.729 15-15 15s-15-6.729-15-15 6.729-15 15-15 15 6.729 15 15z"/>
        <path fill="#e42d5a" d="m316.979 0c-107.523 0-195 87.477-195 195 0 48.374 17.713 92.685 46.984 126.803l-31.984 31.984-10.604-10.604c-5.857-5.858-15.355-5.858-21.213 0l-92.003 92.003c-17.544 17.544-17.544 46.09 0 63.635 17.544 17.543 46.09 17.544 63.635 0l92.003-92.003c5.858-5.858 5.858-15.355 0-21.213l-10.605-10.605 31.984-31.984c34.118 29.272 78.429 46.984 126.803 46.984 107.523 0 195-87.477 195-195s-87.477-195-195-195zm-261.399 477.608c-5.848 5.847-15.362 5.847-21.208 0-5.847-5.848-5.848-15.362 0-21.209l81.397-81.396 21.208 21.208zm261.399-117.608c-90.981 0-165-74.019-165-165s74.019-165 165-165 165 74.019 165 165-74.019 165-165 165z"/>
    </g>
</svg>